<svg width="1024" height="1024" viewBox="0 0 1024 1024" fill="none" xmlns="http://www.w3.org/2000/svg">
<path d="M372.104 359.68C379.365 365.049 383.508 372.595 385.397 381.375C385.486 382.837 385.527 384.302 385.531 385.767C385.535 386.644 385.54 387.522 385.544 388.426C385.544 389.386 385.544 390.346 385.544 391.336C385.547 392.359 385.551 393.382 385.555 394.436C385.566 397.876 385.57 401.316 385.574 404.756C385.58 407.218 385.586 409.68 385.593 412.142C385.613 419.54 385.623 426.938 385.632 434.336C385.637 437.823 385.642 441.311 385.647 444.798C385.664 456.399 385.679 468 385.686 479.6C385.688 482.61 385.69 485.619 385.692 488.629C385.692 489.377 385.693 490.125 385.693 490.895C385.701 502.998 385.727 515.101 385.759 527.204C385.792 539.642 385.81 552.08 385.814 564.518C385.816 571.497 385.824 578.475 385.85 585.453C385.874 592.024 385.878 598.594 385.867 605.165C385.867 607.57 385.873 609.975 385.887 612.381C386.048 642.254 386.048 642.254 376.447 653.438C367.311 662.069 357.326 663.905 345.147 663.676C334.6 662.83 327.369 658.217 320.397 650.375C314.691 642.273 314.097 632.47 314.136 622.869C314.132 621.848 314.128 620.826 314.124 619.774C314.114 616.37 314.118 612.966 314.122 609.563C314.118 607.115 314.112 604.667 314.106 602.218C314.094 596.271 314.092 590.323 314.094 584.375C314.096 579.538 314.094 574.702 314.09 569.865C314.089 569.175 314.089 568.486 314.088 567.775C314.087 566.374 314.086 564.972 314.085 563.571C314.074 550.444 314.076 537.318 314.082 524.192C314.087 512.197 314.076 500.203 314.057 488.208C314.037 475.875 314.029 463.541 314.033 451.208C314.035 444.291 314.032 437.374 314.018 430.456C314.005 423.951 314.008 417.447 314.021 410.942C314.023 408.558 314.02 406.174 314.012 403.79C314.002 400.529 314.01 397.269 314.022 394.008C314.015 393.071 314.008 392.133 314 391.167C314.09 380.096 317.385 370.712 325.061 362.621C338.317 350.545 357.257 350.15 372.104 359.68Z" fill="#FEFEFE"/>
<path d="M695.473 357.543C702.63 362.765 708.385 369.402 711 378C711.423 381.528 711.405 385.026 711.381 388.576C711.386 389.629 711.39 390.682 711.395 391.767C711.407 395.29 711.398 398.813 711.388 402.335C711.392 404.864 711.398 407.392 711.404 409.92C711.416 416.071 711.415 422.222 711.406 428.373C711.399 433.374 711.398 438.375 711.401 443.377C711.402 444.089 711.402 444.802 711.403 445.536C711.404 446.983 711.405 448.431 711.406 449.878C711.414 463.446 711.404 477.014 711.388 490.582C711.375 502.213 711.377 513.845 711.391 525.476C711.407 538.993 711.413 552.51 711.404 566.027C711.403 567.47 711.402 568.913 711.401 570.356C711.401 571.066 711.401 571.775 711.4 572.507C711.397 577.498 711.402 582.49 711.409 587.482C711.418 594.207 711.412 600.933 711.394 607.659C711.39 610.125 711.391 612.592 711.398 615.059C711.406 618.429 711.396 621.799 711.381 625.17C711.388 626.143 711.394 627.116 711.401 628.118C711.312 638.471 708.419 646.623 701 654C691.102 661.436 681.194 663.005 669 662C658.598 659.72 651.167 654.426 645.324 645.637C641.599 638.22 640.561 631.509 640.612 623.266C640.607 622.22 640.602 621.174 640.596 620.096C640.582 616.61 640.589 613.124 640.596 609.637C640.59 607.13 640.583 604.622 640.575 602.115C640.559 596.023 640.557 589.931 640.562 583.839C640.566 578.885 640.565 573.931 640.56 568.977C640.559 568.271 640.558 567.564 640.557 566.836C640.556 565.401 640.554 563.966 640.553 562.531C640.539 549.087 640.544 535.643 640.556 522.199C640.566 509.913 640.553 497.628 640.529 485.342C640.505 472.71 640.495 460.079 640.502 447.447C640.505 440.362 640.503 433.277 640.485 426.192C640.469 419.53 640.474 412.868 640.493 406.205C640.496 403.763 640.493 401.321 640.483 398.879C640.47 395.539 640.481 392.2 640.499 388.861C640.489 387.9 640.48 386.939 640.47 385.949C640.572 376.494 643.487 368.669 650.016 361.75C653.357 358.803 656.972 356.856 661 355C661.625 354.68 662.25 354.361 662.895 354.031C673.537 349.192 685.854 351.541 695.473 357.543Z" fill="#FEFEFE"/>
<path d="M400 472C473.92 472 547.84 472 624 472C624 495.43 624 518.86 624 543C550.08 543 476.16 543 400 543C400 519.57 400 496.14 400 472Z" fill="#FEFEFE"/>
<path d="M291.736 399.154C294.274 401.692 293.982 403.303 294.013 406.764C294.01 407.554 294.007 408.343 294.003 409.157C294.008 409.994 294.013 410.83 294.017 411.693C294.03 414.512 294.028 417.332 294.027 420.152C294.033 422.167 294.039 424.182 294.047 426.197C294.065 431.683 294.069 437.168 294.071 442.654C294.072 447.226 294.08 451.799 294.087 456.372C294.103 467.157 294.108 477.941 294.107 488.726C294.105 499.866 294.127 511.006 294.158 522.147C294.184 531.698 294.195 541.25 294.194 550.801C294.193 556.512 294.199 562.222 294.22 567.933C294.239 573.302 294.24 578.67 294.225 584.039C294.223 586.013 294.228 587.987 294.24 589.961C294.255 592.649 294.246 595.336 294.231 598.024C294.241 598.812 294.251 599.599 294.262 600.411C294.194 605.684 294.194 605.684 291.819 608.12C284.76 611.624 275.068 611.067 267.486 609.529C256.785 605.606 250.509 599.694 244.861 589.904C242.901 585.113 242.606 580.71 242.575 575.559C242.568 574.586 242.568 574.586 242.56 573.592C242.544 571.425 242.536 569.257 242.527 567.089C242.518 565.532 242.508 563.974 242.498 562.417C242.466 557.307 242.446 552.197 242.427 547.088C242.424 546.217 242.421 545.346 242.417 544.448C242.387 536.226 242.36 528.004 242.343 519.781C242.321 509.287 242.279 498.793 242.21 488.299C242.162 480.908 242.138 473.517 242.131 466.125C242.126 461.717 242.111 457.309 242.071 452.901C242.034 448.749 242.026 444.597 242.039 440.444C242.039 438.929 242.029 437.413 242.007 435.897C241.852 424.32 244.135 415.212 251.861 406.279C261.994 397.352 278.97 392.371 291.736 399.154Z" fill="#FDFDFE"/>
<path d="M768 409C774.428 414.907 778.418 421.625 779.368 430.399C779.519 434.426 779.542 438.435 779.518 442.465C779.523 444.005 779.53 445.545 779.539 447.085C779.557 451.243 779.55 455.399 779.537 459.556C779.527 463.924 779.537 468.291 779.543 472.658C779.55 479.99 779.541 487.323 779.521 494.655C779.5 503.11 779.507 511.564 779.529 520.019C779.547 527.301 779.549 534.583 779.539 541.865C779.533 546.204 779.532 550.543 779.545 554.882C779.557 558.964 779.549 563.045 779.526 567.127C779.52 568.618 779.522 570.108 779.531 571.598C779.598 583.989 777.73 594.524 769.203 603.996C760.155 612.995 749.527 614.447 737.312 614.434C733.475 613.931 730.759 612.759 728 610C727.891 607.366 727.848 604.759 727.846 602.124C727.842 601.289 727.837 600.454 727.833 599.593C727.819 596.773 727.813 593.952 727.807 591.132C727.799 589.118 727.791 587.105 727.782 585.092C727.756 578.461 727.741 571.83 727.727 565.199C727.721 562.921 727.716 560.642 727.71 558.364C727.689 548.889 727.67 539.414 727.659 529.939C727.643 516.339 727.609 502.74 727.552 489.14C727.514 479.589 727.494 470.038 727.489 460.487C727.485 454.777 727.473 449.068 727.441 443.358C727.411 437.987 727.404 432.617 727.416 427.246C727.416 425.273 727.408 423.299 727.39 421.325C727.368 418.635 727.376 415.947 727.392 413.257C727.378 412.472 727.364 411.686 727.35 410.877C727.406 407.018 727.652 405.362 730.37 402.531C742.247 395.618 758.179 400.95 768 409Z" fill="white"/>
</svg>
